<?xml version="1.0" encoding="UTF-8"?> <svg xmlns="http://www.w3.org/2000/svg" width="240" height="54" viewBox="0 0 240 54" fill="none"><path d="M3.90934 0.034728C1.44527 0.098446 0.308009 0.225882 0.189544 0.512613C0.0947726 0.735627 0 1.37282 0 1.97814C0 2.83833 0.189544 3.31621 0.947719 4.24012L1.89544 5.41891V25.6175V45.8162L0.947719 47.1861C-0.0947719 48.6516 -0.260621 49.7985 0.379089 51.0092C0.734484 51.7101 0.829255 51.7101 5.82847 51.7101C10.5908 51.7101 10.9225 51.6782 11.3726 51.0729C12.0123 50.2127 11.9649 48.9065 11.2542 47.5047L10.6618 46.3259L10.7092 37.4691C10.7803 27.4654 10.6618 28.007 12.7231 28.8034C13.5287 29.0902 13.9078 29.4725 14.3579 30.3964C14.9266 31.607 14.9266 31.7345 14.9266 39.3806C14.9266 51.5189 14.9976 51.7101 20.5418 51.7101C23.7404 51.7101 23.9299 51.6782 24.2616 51.0092C24.7828 50.0216 24.7355 49.0976 24.0721 47.8233C23.5508 46.7401 23.5034 46.3578 23.385 40.8462C23.2665 34.3788 23.1006 33.423 21.8212 31.0973C21.1578 29.9504 20.5181 29.2813 19.1913 28.3893C18.2199 27.7521 17.3906 27.1149 17.3669 26.9556C17.3196 26.7963 18.0303 26.2229 18.9307 25.6494C20.992 24.3432 22.7216 21.9219 23.4797 19.2776C24.2142 16.697 24.2379 11.8863 23.5034 9.21012C22.7216 6.37467 21.6791 4.39941 20.1153 2.83832C17.8171 0.512609 16.8931 0.194035 11.8465 0.0665987C9.4298 0.00288059 5.87586 -0.0289901 3.90934 0.034728ZM13.4813 3.79409C14.7133 4.78172 14.9266 6.21538 14.9266 13.8297C14.9266 21.1573 14.7133 23.0051 13.6708 24.5343C13.1496 25.3308 11.9176 25.7768 11.1594 25.4264C10.6618 25.2352 10.6618 25.1078 10.6618 14.2439V3.28435H11.7517C12.344 3.28435 13.1259 3.50736 13.4813 3.79409Z" fill="white"></path><path d="M87.6636 0.0772432C86.1573 0.235692 85.9872 0.457525 86.1816 1.88357C86.3031 2.7075 86.546 3.15115 87.0562 3.49974L87.785 4.00677V7.14407C87.785 9.17221 87.6879 10.313 87.5178 10.313C87.372 10.313 86.8133 9.90107 86.2545 9.39403C83.2176 6.66871 80.7639 6.82717 78.4559 9.8377C76.0021 13.0384 75.1275 18.3939 75.0789 30.2776C75.0546 37.8515 75.5891 43.112 76.6824 45.9641C78.1157 49.7352 79.4034 51.2246 81.5656 51.6049C83.3148 51.9218 84.5296 51.5415 86.0358 50.2105C87.5178 48.9429 87.785 48.9112 87.785 50.0521C87.785 51.4147 88.198 51.5415 92.7897 51.4464L97.1385 51.3513L97.2114 49.957C97.2843 48.7528 97.1871 48.4676 96.5554 47.7387L95.8023 46.9148L95.7294 23.7178C95.7051 10.9785 95.6079 0.457517 95.5108 0.330758C95.3164 0.0772393 89.3399 -0.112896 87.6636 0.0772432ZM86.9347 13.6088L87.785 14.0841V29.3903V44.6648L87.1291 45.3937C86.2545 46.376 85.1126 46.3444 84.3595 45.2986L83.7764 44.4747L83.7035 31.767C83.6064 16.6827 83.6792 15.32 84.6267 14.0524C85.4042 13.0384 85.7443 12.975 86.9347 13.6088Z" fill="white"></path><path d="M165.097 0.223443C164.997 0.319202 164.922 1.02143 164.922 1.7875C164.922 2.96853 165.047 3.25582 165.925 4.14957L166.927 5.17101V25.887V46.6348L166.05 47.3052C165.173 47.9436 165.147 48.0074 165.223 49.763L165.298 51.5505L171.64 51.6462L177.958 51.7101L178.234 50.944C178.71 49.6672 178.309 47.9755 177.431 47.4009C177.03 47.1136 176.579 46.571 176.479 46.188C176.128 45.0389 175.952 39.9317 176.153 36.8674L176.328 33.9946L179.211 33.7712C187.108 33.1966 190.793 27.8341 190.768 16.9175C190.768 11.1081 190.016 7.8842 187.96 4.75606C186.707 2.87279 185.428 1.78752 183.323 0.766083C181.743 7.75708e-06 181.568 0 173.47 0C168.958 0 165.173 0.0957633 165.097 0.223443ZM178.986 3.38349C179.437 3.67077 179.938 4.40493 180.239 5.20292C180.665 6.41588 180.715 7.4054 180.715 16.7579C180.715 26.1104 180.665 27.0999 180.239 28.3129C179.662 29.8769 178.584 30.7069 177.256 30.5792L176.328 30.4834L176.128 24.7379C175.902 18.705 176.053 3.76654 176.328 3.19198C176.554 2.71318 178.133 2.80894 178.986 3.38349Z" fill="white"></path><path d="M218.047 0.139614C217.606 0.729563 217.924 2.17167 218.734 3.22047L219.593 4.33482V25.9335C219.593 41.5671 219.519 47.696 219.298 48.2204C219.151 48.6137 218.759 49.2693 218.44 49.6626C217.826 50.4491 217.704 51.629 218.194 52.4812C218.464 53.0056 218.979 53.0384 222.904 52.9728L227.32 52.8745L227.393 51.8912C227.516 50.0231 227.614 50.0231 229.257 51.5307C232.888 54.841 236.298 53.53 238.432 47.9582C239.634 44.7791 240.002 40.8461 240.002 31.243C239.977 19.5752 239.707 16.5926 238.26 12.758C237.328 10.3326 236.347 8.98886 234.85 8.10394C232.888 6.95682 231.171 7.41566 228.865 9.67713C228.006 10.4965 227.663 10.6931 227.565 10.3654C227.491 10.136 227.418 7.71063 227.393 5.02309L227.32 0.106848L222.757 0.00852673C220.255 -0.0242482 218.145 0.0412897 218.047 0.139614ZM230.631 13.9706C230.95 14.2984 231.244 15.1505 231.392 16.0027C231.686 18.1331 231.661 43.042 231.342 44.8446C231.195 45.664 230.925 46.5817 230.705 46.8767C230.141 47.6961 228.571 47.6633 227.933 46.8111C227.467 46.1884 227.442 45.7296 227.442 30.6531C227.442 18.723 227.516 15.0194 227.761 14.6261C228.522 13.3479 229.773 13.0529 230.631 13.9706Z" fill="white"></path><path d="M35.4687 8.65317C31.5827 10.4368 29.4608 13.6598 27.9014 20.1372C27.3389 22.5154 27.2111 23.767 27.1088 28.273C26.9043 35.9082 27.5946 40.7584 29.4864 44.9828C30.4323 47.1106 32.8099 49.8642 34.625 50.8969C35.9288 51.6166 36.4146 51.7105 38.6643 51.7105C41.6043 51.6792 42.4735 51.335 44.3398 49.3636C45.8481 47.7364 46.794 45.7651 47.4843 42.7924C48.149 39.8196 48.149 38.9122 47.4332 38.3176C46.7429 37.7231 44.5954 37.6605 44.2375 38.1925C44.0841 38.4115 43.9052 39.6632 43.8029 40.9461C43.5728 44.1379 42.7036 46.297 41.2464 47.3609C39.2779 48.769 37.7184 48.2058 36.7214 45.7338C36.1845 44.3569 36.1334 43.7311 36.0311 38.1925C35.98 34.8756 36.0055 31.5274 36.1078 30.7764L36.2612 29.3682H41.7321C44.7233 29.3682 47.3565 29.2744 47.5866 29.1805C48.1746 28.8989 48.1234 25.5194 47.4843 21.0447C46.8707 16.789 46.2827 14.7863 45.0045 12.5333C42.8826 8.74705 38.8433 7.11988 35.4687 8.65317ZM39.8403 13.0027C39.9681 13.4095 40.0704 16.4135 40.0704 19.6678C40.0704 26.2704 40.1727 25.9262 38.0763 25.9262C36.0567 25.9262 36.1078 26.0826 36.1334 19.5427C36.1589 13.3156 36.3379 12.4395 37.5906 11.8762C38.3831 11.5007 39.5591 12.0953 39.8403 13.0027Z" fill="white"></path><path d="M57.4565 8.62176C55.3614 9.37383 54.1044 10.2826 53.0445 11.7867C51.8368 13.5102 51.4178 14.8264 51.4178 16.9259C51.4178 19.1195 51.7628 20.0282 52.7981 20.6863C53.8579 21.313 55.1149 21.313 56.8156 20.6236C58.5903 19.9029 59.0832 19.0568 59.3051 16.1111C59.5516 12.7268 59.9213 12.1001 61.6466 12.1001C62.2382 12.1001 62.6079 12.3194 62.9776 12.9148C63.4213 13.6356 63.4952 14.1996 63.4952 17.2706V20.8116L62.7065 21.407C62.2628 21.7204 60.8332 22.5351 59.5516 23.1932C54.1044 25.9821 51.9847 27.9876 51.2945 31.0586C49.791 37.6079 50.3826 46.1941 52.5762 49.3591C53.9072 51.3019 54.6713 51.7093 56.9635 51.7093C59.2065 51.7093 59.7241 51.4586 61.7206 49.265C62.46 48.4816 63.1255 47.8236 63.2487 47.8236C63.3473 47.8236 63.7417 48.4503 64.0868 49.2337C65.0234 51.2706 65.8614 51.7093 68.6713 51.7093C71.6043 51.7406 72.6149 51.1452 72.6149 49.4531C72.6149 48.7637 72.3931 48.0429 71.9987 47.4475L71.3825 46.5075V31.2153V15.8918L70.791 14.231C69.6572 11.0973 68.0551 9.56183 64.7769 8.52773C62.7558 7.90101 59.3544 7.93236 57.4565 8.62176ZM63.4952 34.1609C63.4952 41.8383 63.4459 42.7784 63.0022 43.9692C62.4846 45.442 61.6466 45.9434 60.6361 45.348C59.4283 44.6586 59.2558 43.3738 59.3544 35.9471C59.4283 28.1757 59.5516 27.7056 61.6959 25.9194C63.5199 24.3839 63.4952 24.3213 63.4952 34.1609Z" fill="white"></path><path d="M107.565 8.66659C103.15 10.7011 100.496 16.4917 99.8444 25.4435C99.4583 30.6707 99.8685 39.3409 100.544 40.4677C100.665 40.6242 100.93 41.5319 101.171 42.4396C102.04 45.9139 104.187 49.0753 106.89 50.8594C108.024 51.6106 108.434 51.7045 110.702 51.7045C113.066 51.7358 113.332 51.6732 114.538 50.7968C116.806 49.1692 118.35 46.3834 119.026 42.7526C119.725 38.8401 119.412 37.8071 117.506 37.8071C116.878 37.8071 116.251 37.9323 116.106 38.0576C115.937 38.1828 115.72 39.4035 115.575 40.812C115.141 45.5696 113.718 47.9797 111.353 47.9797C110.316 47.9797 110.098 47.8545 109.495 46.9468C109.133 46.3834 108.723 45.3818 108.578 44.7245C108.192 43.0656 107.951 36.023 108.168 32.3922L108.337 29.3561H113.476C116.299 29.3561 118.784 29.2622 119.001 29.1683C119.508 28.9179 119.508 25.3809 119.05 21.3745C118.398 15.9282 117.65 13.612 115.672 11.0454C113.549 8.29097 110.388 7.35197 107.565 8.66659ZM111.088 12.1096C112.053 12.8921 112.149 13.5181 112.149 19.9973C112.149 25.9756 112.173 25.913 110.123 25.913C108.192 25.913 108.289 26.226 108.289 19.8095C108.289 16.6482 108.385 13.7059 108.53 13.2677C108.699 12.6417 109.737 11.5775 110.219 11.5149C110.291 11.5149 110.678 11.7966 111.088 12.1096Z" fill="white"></path><path d="M134.782 8.64904C133.936 9.3091 133.115 11.2579 132.393 14.401C132.17 15.3754 131.896 16.2241 131.771 16.3498C131.547 16.507 131.324 14.0867 131.174 10.3778L131.125 8.80619H127.144H123.163L123.088 10.0635C123.038 11.1007 123.163 11.5093 123.785 12.3894L124.531 13.4895V29.614C124.531 43.0039 124.481 45.9585 124.183 46.8386C123.984 47.4358 123.685 47.9387 123.561 47.9387C123.163 47.9387 122.964 49.8874 123.262 50.8618L123.536 51.7105L128.811 51.6476L134.11 51.5533L134.185 50.1703C134.26 48.9759 134.16 48.6616 133.414 47.6558L132.543 46.5242L132.369 34.2659C132.294 27.5081 132.294 21.1274 132.393 20.0273C132.692 16.6641 133.837 15.8783 134.956 18.2671C136.001 20.4673 137.494 20.4045 138.564 18.0785C139.211 16.6956 139.261 12.2637 138.639 10.4721C137.817 8.17756 136.325 7.45463 134.782 8.64904Z" fill="white"></path><path d="M142.125 8.36114C142.017 8.55705 142.125 8.98152 142.369 9.30803C142.911 10.059 142.911 10.4508 142.288 12.4425C141.041 16.4913 141.312 17.1116 143.399 14.8914C144.971 13.2261 146.3 10.7773 146.381 9.34067L146.462 8.19789L144.375 8.09994C143.074 8.03464 142.234 8.13259 142.125 8.36114Z" fill="white"></path><path d="M193.542 8.48443C192.995 9.18214 193.194 10.9264 193.941 11.8461L194.613 12.7024L194.738 29.9865L194.862 47.2705L195.535 48.7611C196.581 50.9811 197.677 51.7105 199.968 51.7105C201.612 51.6788 201.985 51.5836 203.206 50.6639C203.953 50.0931 205.049 49.2051 205.621 48.6342C206.219 48.0951 206.767 47.7462 206.867 47.8731C206.966 48 207.116 48.8562 207.191 49.7442L207.315 51.3933L211.848 51.4885C216.256 51.5519 216.381 51.5519 216.53 50.8859C216.779 49.9028 216.455 48.1268 215.907 47.6511C214.861 46.7314 214.836 46.1923 214.812 26.8151L214.787 8.26243L210.329 8.16729C206.917 8.10386 205.796 8.19901 205.646 8.48443C205.298 9.15042 205.696 11.0533 206.369 11.973L207.016 12.8292L206.966 28.1153C206.941 36.4878 206.842 43.56 206.792 43.782C206.717 44.004 206.294 44.4163 205.846 44.7334C204.825 45.4311 203.853 45.1774 203.28 44.0357C202.857 43.2429 202.832 41.784 202.782 26.0222C202.732 16.6032 202.658 8.70643 202.583 8.48443C202.434 7.94529 193.966 7.94529 193.542 8.48443Z" fill="white"></path><path d="M144.96 21.2569C143.766 21.6297 142.71 22.6859 142.113 24.1149C141.631 25.2332 141.539 25.8545 141.539 27.9359C141.539 31.4463 142.389 33.714 146.269 40.5483C149.392 46.0779 149.851 48.5942 147.716 48.5942C147.073 48.5942 145.672 46.9788 144.754 45.1771C144.065 43.8413 143.399 43.4374 142.435 43.7481C141.906 43.9345 141.861 44.0898 141.929 44.9596C142.159 47.1031 142.848 50.9552 143.078 51.2969C143.468 51.9493 144.823 51.7939 145.144 51.0794C145.512 50.3028 145.925 50.3028 147.188 51.0794C149.231 52.322 151.459 51.6386 152.859 49.3398C153.64 48.0661 153.847 46.9478 153.847 44.1519C153.847 40.2998 153.043 37.8146 150.035 32.5957C148.29 29.5513 146.614 26.2584 146.407 25.5128C146.132 24.5498 146.637 23.7421 147.463 23.7421C148.221 23.7421 148.566 24.1149 151.022 27.6874C151.551 28.464 151.918 28.7125 152.538 28.7125C152.974 28.7125 153.411 28.5572 153.502 28.3708C153.571 28.1844 153.365 26.569 152.997 24.7673C152.239 21.0084 151.872 20.5424 150.448 21.4744C149.691 21.9403 149.53 21.9403 148.014 21.4433C146.246 20.9152 146.063 20.8841 144.96 21.2569Z" fill="white"></path></svg> 